<svg width="22" height="22" viewBox="0 0 22 22" fill="none" xmlns="http://www.w3.org/2000/svg">
<path d="M10.9988 0.5C8.56451 0.516578 6.2116 1.37849 4.34259 2.93828C2.47358 4.49807 1.20461 6.65882 0.752777 9.05089C0.300942 11.443 0.694312 13.9177 1.86559 16.0518C3.03688 18.1858 4.91328 19.8466 7.17383 20.75C7.0219 19.7558 7.0219 18.7442 7.17383 17.75L8.41133 12.5C8.21548 12.0245 8.11851 11.5142 8.12633 11C8.12633 9.545 8.97383 8.45 10.0238 8.45C10.214 8.44714 10.4026 8.48543 10.5767 8.56224C10.7507 8.63906 10.9061 8.75258 11.0322 8.89504C11.1582 9.0375 11.252 9.20553 11.3071 9.38761C11.3622 9.5697 11.3773 9.76154 11.3513 9.95C11.3513 10.85 10.7813 12.2 10.4813 13.445C10.4168 13.6772 10.4091 13.9215 10.4589 14.1573C10.5088 14.3931 10.6147 14.6133 10.7678 14.7995C10.9208 14.9857 11.1165 15.1322 11.3382 15.2267C11.5598 15.3212 11.801 15.361 12.0413 15.3425C13.9013 15.3425 15.3413 13.37 15.3413 10.535C15.36 9.95891 15.2584 9.38525 15.0431 8.85061C14.8277 8.31598 14.5032 7.8321 14.0904 7.42986C13.6776 7.02762 13.1854 6.71584 12.6454 6.51442C12.1053 6.31299 11.5292 6.22634 10.9538 6.26C10.3395 6.23361 9.7262 6.33216 9.15107 6.54966C8.57593 6.76717 8.05091 7.09912 7.60778 7.52542C7.16465 7.95172 6.81263 8.46351 6.57303 9.0298C6.33343 9.59609 6.21123 10.2051 6.21383 10.82C6.20549 11.6766 6.46798 12.5139 6.96383 13.2125C6.99988 13.2526 7.02557 13.3009 7.03864 13.3532C7.05171 13.4055 7.05178 13.4602 7.03883 13.5125C6.95633 13.8425 6.77633 14.5625 6.74633 14.705C6.71633 14.8475 6.58882 14.9375 6.39383 14.8475C5.08133 14.2325 4.26383 12.32 4.26383 10.775C4.26383 7.4675 6.67133 4.4225 11.2013 4.4225C14.8388 4.4225 17.6738 7.0175 17.6738 10.49C17.6738 14.105 15.4238 17.015 12.2213 17.015C11.7518 17.0313 11.2857 16.9301 10.8653 16.7206C10.4448 16.511 10.0834 16.1997 9.81383 15.815L9.16133 18.3125C8.84854 19.2831 8.40979 20.2085 7.85633 21.065C8.87616 21.3664 9.93546 21.513 10.9988 21.5C13.7836 21.5 16.4543 20.3938 18.4234 18.4246C20.3926 16.4555 21.4988 13.7848 21.4988 11C21.4988 8.21523 20.3926 5.54451 18.4234 3.57538C16.4543 1.60625 13.7836 0.5 10.9988 0.5Z" fill="white"/>
</svg>
