<svg width="20" height="20" viewBox="0 0 20 20" fill="none" xmlns="http://www.w3.org/2000/svg">
<path d="M18.9321 11.4097C19.0078 10.9435 19.0454 10.472 19.0446 9.99969C19.0446 7.6008 18.0917 5.30017 16.3954 3.60391C14.6992 1.90764 12.3985 0.954687 9.99965 0.954687C9.52738 0.953953 9.05583 0.991577 8.58965 1.06719C7.5442 0.44094 6.3195 0.181918 5.11002 0.331252C3.90054 0.480587 2.77563 1.02972 1.9139 1.89144C1.05218 2.75317 0.503047 3.87808 0.353713 5.08756C0.204379 6.29704 0.463401 7.52174 1.08965 8.56719C1.00527 9.04015 0.96012 9.51928 0.954647 9.99969C0.954647 12.3986 1.9076 14.6992 3.60387 16.3955C5.30013 18.0917 7.60076 19.0447 9.99965 19.0447C10.4719 19.0454 10.9435 19.0078 11.4096 18.9322C12.4551 19.5584 13.6798 19.8175 14.8893 19.6681C16.0987 19.5188 17.2237 18.9697 18.0854 18.1079C18.9471 17.2462 19.4962 16.1213 19.6456 14.9118C19.7949 13.7023 19.5359 12.4776 18.9096 11.4322L18.9321 11.4097ZM14.2971 14.1097C13.8738 14.695 13.2904 15.1455 12.6171 15.4072C11.7864 15.7332 10.8993 15.8912 10.0071 15.8722C8.96867 15.9157 7.93554 15.7018 6.99965 15.2497C6.45401 14.9564 5.9861 14.5373 5.63465 14.0272C5.31271 13.5914 5.12974 13.0686 5.10965 12.5272C5.10886 12.3867 5.13709 12.2476 5.19259 12.1185C5.24808 11.9895 5.32964 11.8733 5.43215 11.7772C5.65931 11.5839 5.95174 11.4846 6.24965 11.4997C6.49861 11.495 6.74092 11.5802 6.93215 11.7397C7.14146 11.9355 7.3031 12.1767 7.40465 12.4447C7.53477 12.7579 7.70088 13.0549 7.89965 13.3297C8.09775 13.5834 8.35535 13.7843 8.64965 13.9147C9.04939 14.0862 9.48256 14.1656 9.91715 14.1472C10.5361 14.1772 11.1492 14.0147 11.6721 13.6822C11.8728 13.5646 12.0397 13.3972 12.1567 13.1962C12.2736 12.9951 12.3367 12.7673 12.3396 12.5347C12.3461 12.3718 12.3181 12.2094 12.2573 12.0582C12.1966 11.907 12.1045 11.7703 11.9871 11.6572C11.7201 11.4112 11.399 11.2313 11.0496 11.1322C10.6596 11.0047 10.1421 10.8772 9.48965 10.7347C8.74027 10.5602 8.0094 10.3141 7.30715 9.99969C6.75457 9.77321 6.26732 9.41229 5.88965 8.94969C5.53144 8.47287 5.34628 7.88828 5.36465 7.29219C5.35859 6.68619 5.55379 6.09532 5.91965 5.61219C6.33754 5.093 6.89405 4.70292 7.52465 4.48719C8.322 4.22235 9.15988 4.10048 9.99965 4.12719C10.6567 4.11557 11.3117 4.20408 11.9421 4.38969C12.4369 4.53659 12.9016 4.77022 13.3146 5.07969C13.6397 5.32382 13.9104 5.63285 14.1096 5.98719C14.2718 6.27342 14.3595 6.59577 14.3646 6.92469C14.3637 7.0649 14.3347 7.2035 14.2793 7.33231C14.2239 7.46113 14.1433 7.57754 14.0421 7.67469C13.9401 7.78528 13.8159 7.87315 13.6776 7.93259C13.5394 7.99203 13.3901 8.0217 13.2396 8.01969C12.9984 8.03846 12.7592 7.96321 12.5721 7.80969C12.3753 7.62006 12.2107 7.39968 12.0846 7.15719C11.8989 6.77493 11.6298 6.4392 11.2971 6.17469C10.8606 5.90255 10.3468 5.78134 9.83465 5.82969C9.30896 5.80753 8.78806 5.93775 8.33465 6.20469C8.16995 6.29263 8.03086 6.42178 7.93096 6.57952C7.83106 6.73725 7.77376 6.9182 7.76465 7.10469C7.75871 7.30845 7.82514 7.50774 7.95215 7.66719C8.10173 7.84051 8.28559 7.98096 8.49215 8.07969C8.71211 8.19348 8.94337 8.28397 9.18215 8.34969C9.42215 8.41719 9.81215 8.51469 10.3596 8.64219C11.0496 8.79219 11.6646 8.95719 12.2271 9.13719C12.7303 9.29048 13.2098 9.51258 13.6521 9.79719C14.038 10.0412 14.3554 10.3793 14.5746 10.7797C14.7975 11.2364 14.9008 11.7422 14.8746 12.2497C14.8814 12.9148 14.6794 13.5653 14.2971 14.1097Z" fill="white"/>
</svg>
