<svg width="18" height="14" viewBox="0 0 18 14" fill="none" xmlns="http://www.w3.org/2000/svg">
<path d="M5.94 13.7045C7.20685 13.7125 8.46268 13.4688 9.63465 12.9877C10.8066 12.5066 11.8714 11.7975 12.7672 10.9017C13.663 10.0059 14.3721 8.94111 14.8532 7.76915C15.3343 6.59719 15.578 5.34136 15.57 4.0745C15.57 3.9245 15.57 3.782 15.57 3.632C16.2267 3.15087 16.7951 2.55963 17.25 1.8845C16.6316 2.15495 15.9773 2.33431 15.3075 2.417C16.0177 1.99384 16.5506 1.32775 16.8075 0.542C16.1456 0.939081 15.4199 1.21823 14.6625 1.367C14.1524 0.823525 13.4775 0.463292 12.7421 0.34204C12.0067 0.220787 11.2518 0.345275 10.5943 0.696241C9.93678 1.04721 9.41324 1.60509 9.1047 2.28356C8.79617 2.96203 8.71983 3.72327 8.8875 4.4495C7.54202 4.38346 6.22553 4.03477 5.02377 3.42613C3.822 2.81749 2.7619 1.96256 1.9125 0.917C1.48419 1.66038 1.35437 2.53874 1.54932 3.37424C1.74427 4.20974 2.24942 4.93994 2.9625 5.417C2.43646 5.39671 1.92259 5.25283 1.4625 4.997V5.0345C1.45783 5.81138 1.71954 6.56639 2.20403 7.1737C2.68851 7.78102 3.3665 8.20395 4.125 8.372C3.63573 8.5036 3.12322 8.5241 2.625 8.432C2.84459 9.09454 3.26376 9.67293 3.82503 10.0878C4.38631 10.5028 5.06219 10.7339 5.76 10.7495C4.56691 11.7099 3.08407 12.2385 1.5525 12.2495C1.28396 12.2417 1.01606 12.2192 0.75 12.182C2.30022 13.1697 4.1019 13.6904 5.94 13.682" fill="white"/>
</svg>
